<mxfile host="app.diagrams.net" modified="2024-01-07T14:54:15.316Z" agent="Mozilla/5.0 (Windows NT 10.0; Win64; x64) AppleWebKit/537.36 (KHTML, like Gecko) Chrome/120.0.0.0 Safari/537.36" etag="NN9N0GuEU4-O3chymUGk" version="22.1.17" type="device">
  <diagram name="Page-1" id="qCiGK2eguAatR5wVfXhA">
    <mxGraphModel dx="1434" dy="760" grid="1" gridSize="10" guides="1" tooltips="1" connect="1" arrows="1" fold="1" page="1" pageScale="1" pageWidth="827" pageHeight="1169" math="0" shadow="0">
      <root>
        <mxCell id="0" />
        <mxCell id="1" parent="0" />
        <mxCell id="q51xoQrbw1AvNv8WtXLn-1" value="Main.java" style="swimlane;fontStyle=0;childLayout=stackLayout;horizontal=1;startSize=26;fillColor=none;horizontalStack=0;resizeParent=1;resizeParentMax=0;resizeLast=0;collapsible=1;marginBottom=0;whiteSpace=wrap;html=1;" vertex="1" parent="1">
          <mxGeometry x="344" y="30" width="140" height="56" as="geometry" />
        </mxCell>
        <mxCell id="q51xoQrbw1AvNv8WtXLn-54" value="Controller" style="text;html=1;align=center;verticalAlign=middle;resizable=0;points=[];autosize=1;strokeColor=none;fillColor=none;" vertex="1" parent="q51xoQrbw1AvNv8WtXLn-1">
          <mxGeometry y="26" width="140" height="30" as="geometry" />
        </mxCell>
        <mxCell id="q51xoQrbw1AvNv8WtXLn-5" value="Controller.java" style="swimlane;fontStyle=1;align=center;verticalAlign=top;childLayout=stackLayout;horizontal=1;startSize=26;horizontalStack=0;resizeParent=1;resizeParentMax=0;resizeLast=0;collapsible=1;marginBottom=0;whiteSpace=wrap;html=1;" vertex="1" parent="1">
          <mxGeometry x="334" y="110" width="160" height="256" as="geometry" />
        </mxCell>
        <mxCell id="q51xoQrbw1AvNv8WtXLn-6" value="View" style="text;strokeColor=none;fillColor=none;align=left;verticalAlign=top;spacingLeft=4;spacingRight=4;overflow=hidden;rotatable=0;points=[[0,0.5],[1,0.5]];portConstraint=eastwest;whiteSpace=wrap;html=1;" vertex="1" parent="q51xoQrbw1AvNv8WtXLn-5">
          <mxGeometry y="26" width="160" height="26" as="geometry" />
        </mxCell>
        <mxCell id="q51xoQrbw1AvNv8WtXLn-7" value="" style="line;strokeWidth=1;fillColor=none;align=left;verticalAlign=middle;spacingTop=-1;spacingLeft=3;spacingRight=3;rotatable=0;labelPosition=right;points=[];portConstraint=eastwest;strokeColor=inherit;" vertex="1" parent="q51xoQrbw1AvNv8WtXLn-5">
          <mxGeometry y="52" width="160" height="8" as="geometry" />
        </mxCell>
        <mxCell id="q51xoQrbw1AvNv8WtXLn-8" value="GameBoard" style="text;strokeColor=none;fillColor=none;align=left;verticalAlign=top;spacingLeft=4;spacingRight=4;overflow=hidden;rotatable=0;points=[[0,0.5],[1,0.5]];portConstraint=eastwest;whiteSpace=wrap;html=1;" vertex="1" parent="q51xoQrbw1AvNv8WtXLn-5">
          <mxGeometry y="60" width="160" height="26" as="geometry" />
        </mxCell>
        <mxCell id="q51xoQrbw1AvNv8WtXLn-10" value="" style="line;strokeWidth=1;fillColor=none;align=left;verticalAlign=middle;spacingTop=-1;spacingLeft=3;spacingRight=3;rotatable=0;labelPosition=right;points=[];portConstraint=eastwest;strokeColor=inherit;" vertex="1" parent="q51xoQrbw1AvNv8WtXLn-5">
          <mxGeometry y="86" width="160" height="8" as="geometry" />
        </mxCell>
        <mxCell id="q51xoQrbw1AvNv8WtXLn-11" value="MainChar" style="text;strokeColor=none;fillColor=none;align=left;verticalAlign=top;spacingLeft=4;spacingRight=4;overflow=hidden;rotatable=0;points=[[0,0.5],[1,0.5]];portConstraint=eastwest;whiteSpace=wrap;html=1;" vertex="1" parent="q51xoQrbw1AvNv8WtXLn-5">
          <mxGeometry y="94" width="160" height="26" as="geometry" />
        </mxCell>
        <mxCell id="q51xoQrbw1AvNv8WtXLn-19" value="" style="line;strokeWidth=1;fillColor=none;align=left;verticalAlign=middle;spacingTop=-1;spacingLeft=3;spacingRight=3;rotatable=0;labelPosition=right;points=[];portConstraint=eastwest;strokeColor=inherit;" vertex="1" parent="q51xoQrbw1AvNv8WtXLn-5">
          <mxGeometry y="120" width="160" height="8" as="geometry" />
        </mxCell>
        <mxCell id="q51xoQrbw1AvNv8WtXLn-12" value="OrangeGuard" style="text;strokeColor=none;fillColor=none;align=left;verticalAlign=top;spacingLeft=4;spacingRight=4;overflow=hidden;rotatable=0;points=[[0,0.5],[1,0.5]];portConstraint=eastwest;whiteSpace=wrap;html=1;" vertex="1" parent="q51xoQrbw1AvNv8WtXLn-5">
          <mxGeometry y="128" width="160" height="26" as="geometry" />
        </mxCell>
        <mxCell id="q51xoQrbw1AvNv8WtXLn-17" value="" style="line;strokeWidth=1;fillColor=none;align=left;verticalAlign=middle;spacingTop=-1;spacingLeft=3;spacingRight=3;rotatable=0;labelPosition=right;points=[];portConstraint=eastwest;strokeColor=inherit;" vertex="1" parent="q51xoQrbw1AvNv8WtXLn-5">
          <mxGeometry y="154" width="160" height="8" as="geometry" />
        </mxCell>
        <mxCell id="q51xoQrbw1AvNv8WtXLn-13" value="BlueGuard" style="text;strokeColor=none;fillColor=none;align=left;verticalAlign=top;spacingLeft=4;spacingRight=4;overflow=hidden;rotatable=0;points=[[0,0.5],[1,0.5]];portConstraint=eastwest;whiteSpace=wrap;html=1;" vertex="1" parent="q51xoQrbw1AvNv8WtXLn-5">
          <mxGeometry y="162" width="160" height="26" as="geometry" />
        </mxCell>
        <mxCell id="q51xoQrbw1AvNv8WtXLn-18" value="" style="line;strokeWidth=1;fillColor=none;align=left;verticalAlign=middle;spacingTop=-1;spacingLeft=3;spacingRight=3;rotatable=0;labelPosition=right;points=[];portConstraint=eastwest;strokeColor=inherit;" vertex="1" parent="q51xoQrbw1AvNv8WtXLn-5">
          <mxGeometry y="188" width="160" height="8" as="geometry" />
        </mxCell>
        <mxCell id="q51xoQrbw1AvNv8WtXLn-14" value="RedGuard" style="text;strokeColor=none;fillColor=none;align=left;verticalAlign=top;spacingLeft=4;spacingRight=4;overflow=hidden;rotatable=0;points=[[0,0.5],[1,0.5]];portConstraint=eastwest;whiteSpace=wrap;html=1;" vertex="1" parent="q51xoQrbw1AvNv8WtXLn-5">
          <mxGeometry y="196" width="160" height="26" as="geometry" />
        </mxCell>
        <mxCell id="q51xoQrbw1AvNv8WtXLn-16" value="" style="line;strokeWidth=1;fillColor=none;align=left;verticalAlign=middle;spacingTop=-1;spacingLeft=3;spacingRight=3;rotatable=0;labelPosition=right;points=[];portConstraint=eastwest;strokeColor=inherit;" vertex="1" parent="q51xoQrbw1AvNv8WtXLn-5">
          <mxGeometry y="222" width="160" height="8" as="geometry" />
        </mxCell>
        <mxCell id="q51xoQrbw1AvNv8WtXLn-15" value="PurpleGuard" style="text;strokeColor=none;fillColor=none;align=left;verticalAlign=top;spacingLeft=4;spacingRight=4;overflow=hidden;rotatable=0;points=[[0,0.5],[1,0.5]];portConstraint=eastwest;whiteSpace=wrap;html=1;" vertex="1" parent="q51xoQrbw1AvNv8WtXLn-5">
          <mxGeometry y="230" width="160" height="26" as="geometry" />
        </mxCell>
        <mxCell id="q51xoQrbw1AvNv8WtXLn-21" value="GameBoard.java" style="swimlane;fontStyle=1;align=center;verticalAlign=top;childLayout=stackLayout;horizontal=1;startSize=26;horizontalStack=0;resizeParent=1;resizeParentMax=0;resizeLast=0;collapsible=1;marginBottom=0;whiteSpace=wrap;html=1;" vertex="1" parent="1">
          <mxGeometry x="110" y="110" width="160" height="222" as="geometry" />
        </mxCell>
        <mxCell id="q51xoQrbw1AvNv8WtXLn-22" value="Coin" style="text;strokeColor=none;fillColor=none;align=left;verticalAlign=top;spacingLeft=4;spacingRight=4;overflow=hidden;rotatable=0;points=[[0,0.5],[1,0.5]];portConstraint=eastwest;whiteSpace=wrap;html=1;" vertex="1" parent="q51xoQrbw1AvNv8WtXLn-21">
          <mxGeometry y="26" width="160" height="26" as="geometry" />
        </mxCell>
        <mxCell id="q51xoQrbw1AvNv8WtXLn-23" value="" style="line;strokeWidth=1;fillColor=none;align=left;verticalAlign=middle;spacingTop=-1;spacingLeft=3;spacingRight=3;rotatable=0;labelPosition=right;points=[];portConstraint=eastwest;strokeColor=inherit;" vertex="1" parent="q51xoQrbw1AvNv8WtXLn-21">
          <mxGeometry y="52" width="160" height="8" as="geometry" />
        </mxCell>
        <mxCell id="q51xoQrbw1AvNv8WtXLn-24" value="Potion" style="text;strokeColor=none;fillColor=none;align=left;verticalAlign=top;spacingLeft=4;spacingRight=4;overflow=hidden;rotatable=0;points=[[0,0.5],[1,0.5]];portConstraint=eastwest;whiteSpace=wrap;html=1;" vertex="1" parent="q51xoQrbw1AvNv8WtXLn-21">
          <mxGeometry y="60" width="160" height="26" as="geometry" />
        </mxCell>
        <mxCell id="q51xoQrbw1AvNv8WtXLn-25" value="" style="line;strokeWidth=1;fillColor=none;align=left;verticalAlign=middle;spacingTop=-1;spacingLeft=3;spacingRight=3;rotatable=0;labelPosition=right;points=[];portConstraint=eastwest;strokeColor=inherit;" vertex="1" parent="q51xoQrbw1AvNv8WtXLn-21">
          <mxGeometry y="86" width="160" height="8" as="geometry" />
        </mxCell>
        <mxCell id="q51xoQrbw1AvNv8WtXLn-26" value="Cloak" style="text;strokeColor=none;fillColor=none;align=left;verticalAlign=top;spacingLeft=4;spacingRight=4;overflow=hidden;rotatable=0;points=[[0,0.5],[1,0.5]];portConstraint=eastwest;whiteSpace=wrap;html=1;" vertex="1" parent="q51xoQrbw1AvNv8WtXLn-21">
          <mxGeometry y="94" width="160" height="26" as="geometry" />
        </mxCell>
        <mxCell id="q51xoQrbw1AvNv8WtXLn-27" value="" style="line;strokeWidth=1;fillColor=none;align=left;verticalAlign=middle;spacingTop=-1;spacingLeft=3;spacingRight=3;rotatable=0;labelPosition=right;points=[];portConstraint=eastwest;strokeColor=inherit;" vertex="1" parent="q51xoQrbw1AvNv8WtXLn-21">
          <mxGeometry y="120" width="160" height="8" as="geometry" />
        </mxCell>
        <mxCell id="q51xoQrbw1AvNv8WtXLn-28" value="Wall" style="text;strokeColor=none;fillColor=none;align=left;verticalAlign=top;spacingLeft=4;spacingRight=4;overflow=hidden;rotatable=0;points=[[0,0.5],[1,0.5]];portConstraint=eastwest;whiteSpace=wrap;html=1;" vertex="1" parent="q51xoQrbw1AvNv8WtXLn-21">
          <mxGeometry y="128" width="160" height="26" as="geometry" />
        </mxCell>
        <mxCell id="q51xoQrbw1AvNv8WtXLn-151" value="" style="line;strokeWidth=1;fillColor=none;align=left;verticalAlign=middle;spacingTop=-1;spacingLeft=3;spacingRight=3;rotatable=0;labelPosition=right;points=[];portConstraint=eastwest;strokeColor=inherit;" vertex="1" parent="q51xoQrbw1AvNv8WtXLn-21">
          <mxGeometry y="154" width="160" height="8" as="geometry" />
        </mxCell>
        <mxCell id="q51xoQrbw1AvNv8WtXLn-150" value="Teleporter" style="text;strokeColor=none;fillColor=none;align=left;verticalAlign=top;spacingLeft=4;spacingRight=4;overflow=hidden;rotatable=0;points=[[0,0.5],[1,0.5]];portConstraint=eastwest;whiteSpace=wrap;html=1;" vertex="1" parent="q51xoQrbw1AvNv8WtXLn-21">
          <mxGeometry y="162" width="160" height="26" as="geometry" />
        </mxCell>
        <mxCell id="q51xoQrbw1AvNv8WtXLn-29" value="" style="line;strokeWidth=1;fillColor=none;align=left;verticalAlign=middle;spacingTop=-1;spacingLeft=3;spacingRight=3;rotatable=0;labelPosition=right;points=[];portConstraint=eastwest;strokeColor=inherit;" vertex="1" parent="q51xoQrbw1AvNv8WtXLn-21">
          <mxGeometry y="188" width="160" height="8" as="geometry" />
        </mxCell>
        <mxCell id="q51xoQrbw1AvNv8WtXLn-30" value="Chronometer" style="text;strokeColor=none;fillColor=none;align=left;verticalAlign=top;spacingLeft=4;spacingRight=4;overflow=hidden;rotatable=0;points=[[0,0.5],[1,0.5]];portConstraint=eastwest;whiteSpace=wrap;html=1;" vertex="1" parent="q51xoQrbw1AvNv8WtXLn-21">
          <mxGeometry y="196" width="160" height="26" as="geometry" />
        </mxCell>
        <mxCell id="q51xoQrbw1AvNv8WtXLn-35" value="View.java" style="swimlane;fontStyle=1;align=center;verticalAlign=top;childLayout=stackLayout;horizontal=1;startSize=26;horizontalStack=0;resizeParent=1;resizeParentMax=0;resizeLast=0;collapsible=1;marginBottom=0;whiteSpace=wrap;html=1;" vertex="1" parent="1">
          <mxGeometry x="570" y="110" width="180" height="120" as="geometry" />
        </mxCell>
        <mxCell id="q51xoQrbw1AvNv8WtXLn-36" value="HashMap gameElemPathsMap" style="text;strokeColor=none;fillColor=none;align=left;verticalAlign=top;spacingLeft=4;spacingRight=4;overflow=hidden;rotatable=0;points=[[0,0.5],[1,0.5]];portConstraint=eastwest;whiteSpace=wrap;html=1;" vertex="1" parent="q51xoQrbw1AvNv8WtXLn-35">
          <mxGeometry y="26" width="180" height="26" as="geometry" />
        </mxCell>
        <mxCell id="q51xoQrbw1AvNv8WtXLn-37" value="" style="line;strokeWidth=1;fillColor=none;align=left;verticalAlign=middle;spacingTop=-1;spacingLeft=3;spacingRight=3;rotatable=0;labelPosition=right;points=[];portConstraint=eastwest;strokeColor=inherit;" vertex="1" parent="q51xoQrbw1AvNv8WtXLn-35">
          <mxGeometry y="52" width="180" height="8" as="geometry" />
        </mxCell>
        <mxCell id="q51xoQrbw1AvNv8WtXLn-38" value="HashMap charPathsMap" style="text;strokeColor=none;fillColor=none;align=left;verticalAlign=top;spacingLeft=4;spacingRight=4;overflow=hidden;rotatable=0;points=[[0,0.5],[1,0.5]];portConstraint=eastwest;whiteSpace=wrap;html=1;" vertex="1" parent="q51xoQrbw1AvNv8WtXLn-35">
          <mxGeometry y="60" width="180" height="26" as="geometry" />
        </mxCell>
        <mxCell id="q51xoQrbw1AvNv8WtXLn-39" value="" style="line;strokeWidth=1;fillColor=none;align=left;verticalAlign=middle;spacingTop=-1;spacingLeft=3;spacingRight=3;rotatable=0;labelPosition=right;points=[];portConstraint=eastwest;strokeColor=inherit;" vertex="1" parent="q51xoQrbw1AvNv8WtXLn-35">
          <mxGeometry y="86" width="180" height="8" as="geometry" />
        </mxCell>
        <mxCell id="q51xoQrbw1AvNv8WtXLn-40" value="HashMap imageCache" style="text;strokeColor=none;fillColor=none;align=left;verticalAlign=top;spacingLeft=4;spacingRight=4;overflow=hidden;rotatable=0;points=[[0,0.5],[1,0.5]];portConstraint=eastwest;whiteSpace=wrap;html=1;" vertex="1" parent="q51xoQrbw1AvNv8WtXLn-35">
          <mxGeometry y="94" width="180" height="26" as="geometry" />
        </mxCell>
        <mxCell id="q51xoQrbw1AvNv8WtXLn-49" value="" style="endArrow=classic;startArrow=classic;html=1;rounded=0;exitX=1.006;exitY=0.064;exitDx=0;exitDy=0;exitPerimeter=0;entryX=0;entryY=0.5;entryDx=0;entryDy=0;" edge="1" parent="1" source="q51xoQrbw1AvNv8WtXLn-21" target="q51xoQrbw1AvNv8WtXLn-8">
          <mxGeometry width="50" height="50" relative="1" as="geometry">
            <mxPoint x="390" y="320" as="sourcePoint" />
            <mxPoint x="440" y="270" as="targetPoint" />
          </mxGeometry>
        </mxCell>
        <mxCell id="q51xoQrbw1AvNv8WtXLn-50" value="" style="endArrow=classic;startArrow=classic;html=1;rounded=0;entryX=0.006;entryY=0.031;entryDx=0;entryDy=0;entryPerimeter=0;exitX=1;exitY=0.5;exitDx=0;exitDy=0;" edge="1" parent="1" source="q51xoQrbw1AvNv8WtXLn-6" target="q51xoQrbw1AvNv8WtXLn-35">
          <mxGeometry width="50" height="50" relative="1" as="geometry">
            <mxPoint x="390" y="320" as="sourcePoint" />
            <mxPoint x="440" y="270" as="targetPoint" />
          </mxGeometry>
        </mxCell>
        <mxCell id="q51xoQrbw1AvNv8WtXLn-53" value="" style="endArrow=classic;startArrow=classic;html=1;rounded=0;entryX=0.5;entryY=1;entryDx=0;entryDy=0;exitX=0.5;exitY=0;exitDx=0;exitDy=0;" edge="1" parent="1" source="q51xoQrbw1AvNv8WtXLn-5" target="q51xoQrbw1AvNv8WtXLn-1">
          <mxGeometry width="50" height="50" relative="1" as="geometry">
            <mxPoint x="390" y="320" as="sourcePoint" />
            <mxPoint x="440" y="270" as="targetPoint" />
          </mxGeometry>
        </mxCell>
        <mxCell id="q51xoQrbw1AvNv8WtXLn-55" value="MainChar.java" style="swimlane;fontStyle=1;align=center;verticalAlign=top;childLayout=stackLayout;horizontal=1;startSize=26;horizontalStack=0;resizeParent=1;resizeParentMax=0;resizeLast=0;collapsible=1;marginBottom=0;whiteSpace=wrap;html=1;" vertex="1" parent="1">
          <mxGeometry x="334" y="390" width="160" height="86" as="geometry" />
        </mxCell>
        <mxCell id="q51xoQrbw1AvNv8WtXLn-56" value="boolean isAlive" style="text;strokeColor=none;fillColor=none;align=left;verticalAlign=top;spacingLeft=4;spacingRight=4;overflow=hidden;rotatable=0;points=[[0,0.5],[1,0.5]];portConstraint=eastwest;whiteSpace=wrap;html=1;" vertex="1" parent="q51xoQrbw1AvNv8WtXLn-55">
          <mxGeometry y="26" width="160" height="26" as="geometry" />
        </mxCell>
        <mxCell id="q51xoQrbw1AvNv8WtXLn-57" value="" style="line;strokeWidth=1;fillColor=none;align=left;verticalAlign=middle;spacingTop=-1;spacingLeft=3;spacingRight=3;rotatable=0;labelPosition=right;points=[];portConstraint=eastwest;strokeColor=inherit;" vertex="1" parent="q51xoQrbw1AvNv8WtXLn-55">
          <mxGeometry y="52" width="160" height="8" as="geometry" />
        </mxCell>
        <mxCell id="q51xoQrbw1AvNv8WtXLn-58" value="ArrayList memoryPosition" style="text;strokeColor=none;fillColor=none;align=left;verticalAlign=top;spacingLeft=4;spacingRight=4;overflow=hidden;rotatable=0;points=[[0,0.5],[1,0.5]];portConstraint=eastwest;whiteSpace=wrap;html=1;" vertex="1" parent="q51xoQrbw1AvNv8WtXLn-55">
          <mxGeometry y="60" width="160" height="26" as="geometry" />
        </mxCell>
        <mxCell id="q51xoQrbw1AvNv8WtXLn-69" style="edgeStyle=orthogonalEdgeStyle;rounded=0;orthogonalLoop=1;jettySize=auto;html=1;" edge="1" parent="1" source="q51xoQrbw1AvNv8WtXLn-62" target="q51xoQrbw1AvNv8WtXLn-55">
          <mxGeometry relative="1" as="geometry" />
        </mxCell>
        <mxCell id="q51xoQrbw1AvNv8WtXLn-62" value="Character.java" style="swimlane;fontStyle=1;align=center;verticalAlign=top;childLayout=stackLayout;horizontal=1;startSize=26;horizontalStack=0;resizeParent=1;resizeParentMax=0;resizeLast=0;collapsible=1;marginBottom=0;whiteSpace=wrap;html=1;" vertex="1" parent="1">
          <mxGeometry x="580" y="270" width="160" height="120" as="geometry" />
        </mxCell>
        <mxCell id="q51xoQrbw1AvNv8WtXLn-63" value="String[] imagePaths" style="text;strokeColor=none;fillColor=none;align=left;verticalAlign=top;spacingLeft=4;spacingRight=4;overflow=hidden;rotatable=0;points=[[0,0.5],[1,0.5]];portConstraint=eastwest;whiteSpace=wrap;html=1;" vertex="1" parent="q51xoQrbw1AvNv8WtXLn-62">
          <mxGeometry y="26" width="160" height="26" as="geometry" />
        </mxCell>
        <mxCell id="q51xoQrbw1AvNv8WtXLn-64" value="" style="line;strokeWidth=1;fillColor=none;align=left;verticalAlign=middle;spacingTop=-1;spacingLeft=3;spacingRight=3;rotatable=0;labelPosition=right;points=[];portConstraint=eastwest;strokeColor=inherit;" vertex="1" parent="q51xoQrbw1AvNv8WtXLn-62">
          <mxGeometry y="52" width="160" height="8" as="geometry" />
        </mxCell>
        <mxCell id="q51xoQrbw1AvNv8WtXLn-65" value="int posX, posY" style="text;strokeColor=none;fillColor=none;align=left;verticalAlign=top;spacingLeft=4;spacingRight=4;overflow=hidden;rotatable=0;points=[[0,0.5],[1,0.5]];portConstraint=eastwest;whiteSpace=wrap;html=1;" vertex="1" parent="q51xoQrbw1AvNv8WtXLn-62">
          <mxGeometry y="60" width="160" height="26" as="geometry" />
        </mxCell>
        <mxCell id="q51xoQrbw1AvNv8WtXLn-67" value="" style="line;strokeWidth=1;fillColor=none;align=left;verticalAlign=middle;spacingTop=-1;spacingLeft=3;spacingRight=3;rotatable=0;labelPosition=right;points=[];portConstraint=eastwest;strokeColor=inherit;" vertex="1" parent="q51xoQrbw1AvNv8WtXLn-62">
          <mxGeometry y="86" width="160" height="8" as="geometry" />
        </mxCell>
        <mxCell id="q51xoQrbw1AvNv8WtXLn-66" value="int direction" style="text;strokeColor=none;fillColor=none;align=left;verticalAlign=top;spacingLeft=4;spacingRight=4;overflow=hidden;rotatable=0;points=[[0,0.5],[1,0.5]];portConstraint=eastwest;whiteSpace=wrap;html=1;" vertex="1" parent="q51xoQrbw1AvNv8WtXLn-62">
          <mxGeometry y="94" width="160" height="26" as="geometry" />
        </mxCell>
        <mxCell id="q51xoQrbw1AvNv8WtXLn-72" style="edgeStyle=orthogonalEdgeStyle;rounded=0;orthogonalLoop=1;jettySize=auto;html=1;entryX=0;entryY=0.25;entryDx=0;entryDy=0;" edge="1" parent="1" source="q51xoQrbw1AvNv8WtXLn-11" target="q51xoQrbw1AvNv8WtXLn-55">
          <mxGeometry relative="1" as="geometry" />
        </mxCell>
        <mxCell id="q51xoQrbw1AvNv8WtXLn-156" style="edgeStyle=orthogonalEdgeStyle;rounded=0;orthogonalLoop=1;jettySize=auto;html=1;entryX=0.5;entryY=0;entryDx=0;entryDy=0;" edge="1" parent="1" source="q51xoQrbw1AvNv8WtXLn-73" target="q51xoQrbw1AvNv8WtXLn-114">
          <mxGeometry relative="1" as="geometry" />
        </mxCell>
        <mxCell id="q51xoQrbw1AvNv8WtXLn-73" value="GameElement.java" style="swimlane;fontStyle=1;align=center;verticalAlign=top;childLayout=stackLayout;horizontal=1;startSize=26;horizontalStack=0;resizeParent=1;resizeParentMax=0;resizeLast=0;collapsible=1;marginBottom=0;whiteSpace=wrap;html=1;" vertex="1" parent="1">
          <mxGeometry x="110" y="356" width="160" height="120" as="geometry" />
        </mxCell>
        <mxCell id="q51xoQrbw1AvNv8WtXLn-74" value="int posX, posY" style="text;strokeColor=none;fillColor=none;align=left;verticalAlign=top;spacingLeft=4;spacingRight=4;overflow=hidden;rotatable=0;points=[[0,0.5],[1,0.5]];portConstraint=eastwest;whiteSpace=wrap;html=1;" vertex="1" parent="q51xoQrbw1AvNv8WtXLn-73">
          <mxGeometry y="26" width="160" height="26" as="geometry" />
        </mxCell>
        <mxCell id="q51xoQrbw1AvNv8WtXLn-75" value="" style="line;strokeWidth=1;fillColor=none;align=left;verticalAlign=middle;spacingTop=-1;spacingLeft=3;spacingRight=3;rotatable=0;labelPosition=right;points=[];portConstraint=eastwest;strokeColor=inherit;" vertex="1" parent="q51xoQrbw1AvNv8WtXLn-73">
          <mxGeometry y="52" width="160" height="8" as="geometry" />
        </mxCell>
        <mxCell id="q51xoQrbw1AvNv8WtXLn-76" value="String[] imagePaths" style="text;strokeColor=none;fillColor=none;align=left;verticalAlign=top;spacingLeft=4;spacingRight=4;overflow=hidden;rotatable=0;points=[[0,0.5],[1,0.5]];portConstraint=eastwest;whiteSpace=wrap;html=1;" vertex="1" parent="q51xoQrbw1AvNv8WtXLn-73">
          <mxGeometry y="60" width="160" height="26" as="geometry" />
        </mxCell>
        <mxCell id="q51xoQrbw1AvNv8WtXLn-133" value="" style="line;strokeWidth=1;fillColor=none;align=left;verticalAlign=middle;spacingTop=-1;spacingLeft=3;spacingRight=3;rotatable=0;labelPosition=right;points=[];portConstraint=eastwest;strokeColor=inherit;" vertex="1" parent="q51xoQrbw1AvNv8WtXLn-73">
          <mxGeometry y="86" width="160" height="8" as="geometry" />
        </mxCell>
        <mxCell id="q51xoQrbw1AvNv8WtXLn-131" value="triggerAction(Gameboard)" style="text;strokeColor=none;fillColor=none;align=left;verticalAlign=top;spacingLeft=4;spacingRight=4;overflow=hidden;rotatable=0;points=[[0,0.5],[1,0.5]];portConstraint=eastwest;whiteSpace=wrap;html=1;" vertex="1" parent="q51xoQrbw1AvNv8WtXLn-73">
          <mxGeometry y="94" width="160" height="26" as="geometry" />
        </mxCell>
        <mxCell id="q51xoQrbw1AvNv8WtXLn-88" style="edgeStyle=orthogonalEdgeStyle;rounded=0;orthogonalLoop=1;jettySize=auto;html=1;" edge="1" parent="1" source="q51xoQrbw1AvNv8WtXLn-77" target="q51xoQrbw1AvNv8WtXLn-82">
          <mxGeometry relative="1" as="geometry" />
        </mxCell>
        <mxCell id="q51xoQrbw1AvNv8WtXLn-77" value="Guard.java" style="swimlane;fontStyle=1;align=center;verticalAlign=top;childLayout=stackLayout;horizontal=1;startSize=26;horizontalStack=0;resizeParent=1;resizeParentMax=0;resizeLast=0;collapsible=1;marginBottom=0;whiteSpace=wrap;html=1;" vertex="1" parent="1">
          <mxGeometry x="321" y="499" width="186" height="86" as="geometry" />
        </mxCell>
        <mxCell id="q51xoQrbw1AvNv8WtXLn-78" value="boolean isAlive" style="text;strokeColor=none;fillColor=none;align=left;verticalAlign=top;spacingLeft=4;spacingRight=4;overflow=hidden;rotatable=0;points=[[0,0.5],[1,0.5]];portConstraint=eastwest;whiteSpace=wrap;html=1;" vertex="1" parent="q51xoQrbw1AvNv8WtXLn-77">
          <mxGeometry y="26" width="186" height="26" as="geometry" />
        </mxCell>
        <mxCell id="q51xoQrbw1AvNv8WtXLn-79" value="" style="line;strokeWidth=1;fillColor=none;align=left;verticalAlign=middle;spacingTop=-1;spacingLeft=3;spacingRight=3;rotatable=0;labelPosition=right;points=[];portConstraint=eastwest;strokeColor=inherit;" vertex="1" parent="q51xoQrbw1AvNv8WtXLn-77">
          <mxGeometry y="52" width="186" height="8" as="geometry" />
        </mxCell>
        <mxCell id="q51xoQrbw1AvNv8WtXLn-80" value="move(ArrayList gamElementList)" style="text;strokeColor=none;fillColor=none;align=left;verticalAlign=top;spacingLeft=4;spacingRight=4;overflow=hidden;rotatable=0;points=[[0,0.5],[1,0.5]];portConstraint=eastwest;whiteSpace=wrap;html=1;" vertex="1" parent="q51xoQrbw1AvNv8WtXLn-77">
          <mxGeometry y="60" width="186" height="26" as="geometry" />
        </mxCell>
        <mxCell id="q51xoQrbw1AvNv8WtXLn-82" value="OrangeGuard.java" style="swimlane;fontStyle=1;align=center;verticalAlign=top;childLayout=stackLayout;horizontal=1;startSize=26;horizontalStack=0;resizeParent=1;resizeParentMax=0;resizeLast=0;collapsible=1;marginBottom=0;whiteSpace=wrap;html=1;fillColor=#ffe6cc;strokeColor=#d79b00;" vertex="1" parent="1">
          <mxGeometry x="580" y="499" width="160" height="31" as="geometry" />
        </mxCell>
        <mxCell id="q51xoQrbw1AvNv8WtXLn-86" style="edgeStyle=orthogonalEdgeStyle;rounded=0;orthogonalLoop=1;jettySize=auto;html=1;entryX=1;entryY=0.5;entryDx=0;entryDy=0;" edge="1" parent="1" source="q51xoQrbw1AvNv8WtXLn-65" target="q51xoQrbw1AvNv8WtXLn-78">
          <mxGeometry relative="1" as="geometry">
            <Array as="points">
              <mxPoint x="544" y="343" />
              <mxPoint x="544" y="530" />
              <mxPoint x="507" y="530" />
            </Array>
          </mxGeometry>
        </mxCell>
        <mxCell id="q51xoQrbw1AvNv8WtXLn-87" style="edgeStyle=orthogonalEdgeStyle;rounded=0;orthogonalLoop=1;jettySize=auto;html=1;entryX=1;entryY=0.25;entryDx=0;entryDy=0;" edge="1" parent="1" source="q51xoQrbw1AvNv8WtXLn-12" target="q51xoQrbw1AvNv8WtXLn-82">
          <mxGeometry relative="1" as="geometry" />
        </mxCell>
        <mxCell id="q51xoQrbw1AvNv8WtXLn-89" value="BlueGuard.java" style="swimlane;fontStyle=1;align=center;verticalAlign=top;childLayout=stackLayout;horizontal=1;startSize=26;horizontalStack=0;resizeParent=1;resizeParentMax=0;resizeLast=0;collapsible=1;marginBottom=0;whiteSpace=wrap;html=1;fillColor=#dae8fc;strokeColor=#6c8ebf;" vertex="1" parent="1">
          <mxGeometry x="580" y="551" width="160" height="120" as="geometry" />
        </mxCell>
        <mxCell id="q51xoQrbw1AvNv8WtXLn-91" value="int rows, columns" style="text;strokeColor=none;fillColor=none;align=left;verticalAlign=top;spacingLeft=4;spacingRight=4;overflow=hidden;rotatable=0;points=[[0,0.5],[1,0.5]];portConstraint=eastwest;whiteSpace=wrap;html=1;" vertex="1" parent="q51xoQrbw1AvNv8WtXLn-89">
          <mxGeometry y="26" width="160" height="26" as="geometry" />
        </mxCell>
        <mxCell id="q51xoQrbw1AvNv8WtXLn-92" value="" style="line;strokeWidth=1;fillColor=none;align=left;verticalAlign=middle;spacingTop=-1;spacingLeft=3;spacingRight=3;rotatable=0;labelPosition=right;points=[];portConstraint=eastwest;strokeColor=inherit;" vertex="1" parent="q51xoQrbw1AvNv8WtXLn-89">
          <mxGeometry y="52" width="160" height="8" as="geometry" />
        </mxCell>
        <mxCell id="q51xoQrbw1AvNv8WtXLn-93" value="Point currentDirection" style="text;strokeColor=none;fillColor=none;align=left;verticalAlign=top;spacingLeft=4;spacingRight=4;overflow=hidden;rotatable=0;points=[[0,0.5],[1,0.5]];portConstraint=eastwest;whiteSpace=wrap;html=1;" vertex="1" parent="q51xoQrbw1AvNv8WtXLn-89">
          <mxGeometry y="60" width="160" height="26" as="geometry" />
        </mxCell>
        <mxCell id="q51xoQrbw1AvNv8WtXLn-94" value="" style="line;strokeWidth=1;fillColor=none;align=left;verticalAlign=middle;spacingTop=-1;spacingLeft=3;spacingRight=3;rotatable=0;labelPosition=right;points=[];portConstraint=eastwest;strokeColor=inherit;" vertex="1" parent="q51xoQrbw1AvNv8WtXLn-89">
          <mxGeometry y="86" width="160" height="8" as="geometry" />
        </mxCell>
        <mxCell id="q51xoQrbw1AvNv8WtXLn-95" value="ArrayList memoryPosition" style="text;strokeColor=none;fillColor=none;align=left;verticalAlign=top;spacingLeft=4;spacingRight=4;overflow=hidden;rotatable=0;points=[[0,0.5],[1,0.5]];portConstraint=eastwest;whiteSpace=wrap;html=1;" vertex="1" parent="q51xoQrbw1AvNv8WtXLn-89">
          <mxGeometry y="94" width="160" height="26" as="geometry" />
        </mxCell>
        <mxCell id="q51xoQrbw1AvNv8WtXLn-96" value="RedGuard.java" style="swimlane;fontStyle=1;align=center;verticalAlign=top;childLayout=stackLayout;horizontal=1;startSize=26;horizontalStack=0;resizeParent=1;resizeParentMax=0;resizeLast=0;collapsible=1;marginBottom=0;whiteSpace=wrap;html=1;fillColor=#f8cecc;strokeColor=#b85450;" vertex="1" parent="1">
          <mxGeometry x="580" y="690" width="160" height="86" as="geometry" />
        </mxCell>
        <mxCell id="q51xoQrbw1AvNv8WtXLn-97" value="MainCharacter" style="text;strokeColor=none;fillColor=none;align=left;verticalAlign=top;spacingLeft=4;spacingRight=4;overflow=hidden;rotatable=0;points=[[0,0.5],[1,0.5]];portConstraint=eastwest;whiteSpace=wrap;html=1;" vertex="1" parent="q51xoQrbw1AvNv8WtXLn-96">
          <mxGeometry y="26" width="160" height="26" as="geometry" />
        </mxCell>
        <mxCell id="q51xoQrbw1AvNv8WtXLn-98" value="" style="line;strokeWidth=1;fillColor=none;align=left;verticalAlign=middle;spacingTop=-1;spacingLeft=3;spacingRight=3;rotatable=0;labelPosition=right;points=[];portConstraint=eastwest;strokeColor=inherit;" vertex="1" parent="q51xoQrbw1AvNv8WtXLn-96">
          <mxGeometry y="52" width="160" height="8" as="geometry" />
        </mxCell>
        <mxCell id="q51xoQrbw1AvNv8WtXLn-99" value="Point currentDirection" style="text;strokeColor=none;fillColor=none;align=left;verticalAlign=top;spacingLeft=4;spacingRight=4;overflow=hidden;rotatable=0;points=[[0,0.5],[1,0.5]];portConstraint=eastwest;whiteSpace=wrap;html=1;" vertex="1" parent="q51xoQrbw1AvNv8WtXLn-96">
          <mxGeometry y="60" width="160" height="26" as="geometry" />
        </mxCell>
        <mxCell id="q51xoQrbw1AvNv8WtXLn-102" value="PurpleGuard.java" style="swimlane;fontStyle=1;align=center;verticalAlign=top;childLayout=stackLayout;horizontal=1;startSize=26;horizontalStack=0;resizeParent=1;resizeParentMax=0;resizeLast=0;collapsible=1;marginBottom=0;whiteSpace=wrap;html=1;fillColor=#e1d5e7;strokeColor=#9673a6;" vertex="1" parent="1">
          <mxGeometry x="580" y="800" width="160" height="86" as="geometry" />
        </mxCell>
        <mxCell id="q51xoQrbw1AvNv8WtXLn-103" value="ArrayList towersPosition" style="text;strokeColor=none;fillColor=none;align=left;verticalAlign=top;spacingLeft=4;spacingRight=4;overflow=hidden;rotatable=0;points=[[0,0.5],[1,0.5]];portConstraint=eastwest;whiteSpace=wrap;html=1;" vertex="1" parent="q51xoQrbw1AvNv8WtXLn-102">
          <mxGeometry y="26" width="160" height="26" as="geometry" />
        </mxCell>
        <mxCell id="q51xoQrbw1AvNv8WtXLn-104" value="" style="line;strokeWidth=1;fillColor=none;align=left;verticalAlign=middle;spacingTop=-1;spacingLeft=3;spacingRight=3;rotatable=0;labelPosition=right;points=[];portConstraint=eastwest;strokeColor=inherit;" vertex="1" parent="q51xoQrbw1AvNv8WtXLn-102">
          <mxGeometry y="52" width="160" height="8" as="geometry" />
        </mxCell>
        <mxCell id="q51xoQrbw1AvNv8WtXLn-105" value="Point currentDirection" style="text;strokeColor=none;fillColor=none;align=left;verticalAlign=top;spacingLeft=4;spacingRight=4;overflow=hidden;rotatable=0;points=[[0,0.5],[1,0.5]];portConstraint=eastwest;whiteSpace=wrap;html=1;" vertex="1" parent="q51xoQrbw1AvNv8WtXLn-102">
          <mxGeometry y="60" width="160" height="26" as="geometry" />
        </mxCell>
        <mxCell id="q51xoQrbw1AvNv8WtXLn-106" style="edgeStyle=orthogonalEdgeStyle;rounded=0;orthogonalLoop=1;jettySize=auto;html=1;entryX=0;entryY=0.5;entryDx=0;entryDy=0;" edge="1" parent="1" source="q51xoQrbw1AvNv8WtXLn-13" target="q51xoQrbw1AvNv8WtXLn-93">
          <mxGeometry relative="1" as="geometry" />
        </mxCell>
        <mxCell id="q51xoQrbw1AvNv8WtXLn-107" style="edgeStyle=orthogonalEdgeStyle;rounded=0;orthogonalLoop=1;jettySize=auto;html=1;entryX=0;entryY=0.25;entryDx=0;entryDy=0;" edge="1" parent="1" source="q51xoQrbw1AvNv8WtXLn-14" target="q51xoQrbw1AvNv8WtXLn-96">
          <mxGeometry relative="1" as="geometry" />
        </mxCell>
        <mxCell id="q51xoQrbw1AvNv8WtXLn-108" style="edgeStyle=orthogonalEdgeStyle;rounded=0;orthogonalLoop=1;jettySize=auto;html=1;entryX=0;entryY=0.5;entryDx=0;entryDy=0;" edge="1" parent="1" source="q51xoQrbw1AvNv8WtXLn-15" target="q51xoQrbw1AvNv8WtXLn-103">
          <mxGeometry relative="1" as="geometry" />
        </mxCell>
        <mxCell id="q51xoQrbw1AvNv8WtXLn-109" style="edgeStyle=orthogonalEdgeStyle;rounded=0;orthogonalLoop=1;jettySize=auto;html=1;entryX=-0.025;entryY=0.133;entryDx=0;entryDy=0;entryPerimeter=0;" edge="1" parent="1" source="q51xoQrbw1AvNv8WtXLn-77" target="q51xoQrbw1AvNv8WtXLn-89">
          <mxGeometry relative="1" as="geometry">
            <Array as="points">
              <mxPoint x="544" y="530" />
              <mxPoint x="544" y="567" />
            </Array>
          </mxGeometry>
        </mxCell>
        <mxCell id="q51xoQrbw1AvNv8WtXLn-110" style="edgeStyle=orthogonalEdgeStyle;rounded=0;orthogonalLoop=1;jettySize=auto;html=1;entryX=0;entryY=0.923;entryDx=0;entryDy=0;entryPerimeter=0;" edge="1" parent="1" source="q51xoQrbw1AvNv8WtXLn-78" target="q51xoQrbw1AvNv8WtXLn-97">
          <mxGeometry relative="1" as="geometry" />
        </mxCell>
        <mxCell id="q51xoQrbw1AvNv8WtXLn-112" style="edgeStyle=orthogonalEdgeStyle;rounded=0;orthogonalLoop=1;jettySize=auto;html=1;entryX=-0.012;entryY=0.115;entryDx=0;entryDy=0;entryPerimeter=0;" edge="1" parent="1" source="q51xoQrbw1AvNv8WtXLn-78" target="q51xoQrbw1AvNv8WtXLn-105">
          <mxGeometry relative="1" as="geometry" />
        </mxCell>
        <mxCell id="q51xoQrbw1AvNv8WtXLn-114" value="Coin.java" style="swimlane;fontStyle=1;align=center;verticalAlign=top;childLayout=stackLayout;horizontal=1;startSize=26;horizontalStack=0;resizeParent=1;resizeParentMax=0;resizeLast=0;collapsible=1;marginBottom=0;whiteSpace=wrap;html=1;" vertex="1" parent="1">
          <mxGeometry x="110" y="555" width="160" height="30" as="geometry" />
        </mxCell>
        <mxCell id="q51xoQrbw1AvNv8WtXLn-118" value="Potion.java" style="swimlane;fontStyle=1;align=center;verticalAlign=top;childLayout=stackLayout;horizontal=1;startSize=26;horizontalStack=0;resizeParent=1;resizeParentMax=0;resizeLast=0;collapsible=1;marginBottom=0;whiteSpace=wrap;html=1;" vertex="1" parent="1">
          <mxGeometry x="110" y="600" width="160" height="155" as="geometry" />
        </mxCell>
        <mxCell id="q51xoQrbw1AvNv8WtXLn-119" value="int duration" style="text;strokeColor=none;fillColor=none;align=left;verticalAlign=top;spacingLeft=4;spacingRight=4;overflow=hidden;rotatable=0;points=[[0,0.5],[1,0.5]];portConstraint=eastwest;whiteSpace=wrap;html=1;" vertex="1" parent="q51xoQrbw1AvNv8WtXLn-118">
          <mxGeometry y="26" width="160" height="26" as="geometry" />
        </mxCell>
        <mxCell id="q51xoQrbw1AvNv8WtXLn-120" value="" style="line;strokeWidth=1;fillColor=none;align=left;verticalAlign=middle;spacingTop=-1;spacingLeft=3;spacingRight=3;rotatable=0;labelPosition=right;points=[];portConstraint=eastwest;strokeColor=inherit;" vertex="1" parent="q51xoQrbw1AvNv8WtXLn-118">
          <mxGeometry y="52" width="160" height="8" as="geometry" />
        </mxCell>
        <mxCell id="q51xoQrbw1AvNv8WtXLn-121" value="int skinIndex" style="text;strokeColor=none;fillColor=none;align=left;verticalAlign=top;spacingLeft=4;spacingRight=4;overflow=hidden;rotatable=0;points=[[0,0.5],[1,0.5]];portConstraint=eastwest;whiteSpace=wrap;html=1;" vertex="1" parent="q51xoQrbw1AvNv8WtXLn-118">
          <mxGeometry y="60" width="160" height="26" as="geometry" />
        </mxCell>
        <mxCell id="q51xoQrbw1AvNv8WtXLn-124" value="" style="line;strokeWidth=1;fillColor=none;align=left;verticalAlign=middle;spacingTop=-1;spacingLeft=3;spacingRight=3;rotatable=0;labelPosition=right;points=[];portConstraint=eastwest;strokeColor=inherit;" vertex="1" parent="q51xoQrbw1AvNv8WtXLn-118">
          <mxGeometry y="86" width="160" height="9" as="geometry" />
        </mxCell>
        <mxCell id="q51xoQrbw1AvNv8WtXLn-122" value="String color" style="text;strokeColor=none;fillColor=none;align=left;verticalAlign=top;spacingLeft=4;spacingRight=4;overflow=hidden;rotatable=0;points=[[0,0.5],[1,0.5]];portConstraint=eastwest;whiteSpace=wrap;html=1;" vertex="1" parent="q51xoQrbw1AvNv8WtXLn-118">
          <mxGeometry y="95" width="160" height="26" as="geometry" />
        </mxCell>
        <mxCell id="q51xoQrbw1AvNv8WtXLn-125" value="" style="line;strokeWidth=1;fillColor=none;align=left;verticalAlign=middle;spacingTop=-1;spacingLeft=3;spacingRight=3;rotatable=0;labelPosition=right;points=[];portConstraint=eastwest;strokeColor=inherit;" vertex="1" parent="q51xoQrbw1AvNv8WtXLn-118">
          <mxGeometry y="121" width="160" height="8" as="geometry" />
        </mxCell>
        <mxCell id="q51xoQrbw1AvNv8WtXLn-123" value="boolean isTaked" style="text;strokeColor=none;fillColor=none;align=left;verticalAlign=top;spacingLeft=4;spacingRight=4;overflow=hidden;rotatable=0;points=[[0,0.5],[1,0.5]];portConstraint=eastwest;whiteSpace=wrap;html=1;" vertex="1" parent="q51xoQrbw1AvNv8WtXLn-118">
          <mxGeometry y="129" width="160" height="26" as="geometry" />
        </mxCell>
        <mxCell id="q51xoQrbw1AvNv8WtXLn-127" value="Cloak.java" style="swimlane;fontStyle=1;align=center;verticalAlign=top;childLayout=stackLayout;horizontal=1;startSize=26;horizontalStack=0;resizeParent=1;resizeParentMax=0;resizeLast=0;collapsible=1;marginBottom=0;whiteSpace=wrap;html=1;" vertex="1" parent="1">
          <mxGeometry x="110" y="770" width="160" height="52" as="geometry" />
        </mxCell>
        <mxCell id="q51xoQrbw1AvNv8WtXLn-128" value="boolean isTaked" style="text;strokeColor=none;fillColor=none;align=left;verticalAlign=top;spacingLeft=4;spacingRight=4;overflow=hidden;rotatable=0;points=[[0,0.5],[1,0.5]];portConstraint=eastwest;whiteSpace=wrap;html=1;" vertex="1" parent="q51xoQrbw1AvNv8WtXLn-127">
          <mxGeometry y="26" width="160" height="26" as="geometry" />
        </mxCell>
        <mxCell id="q51xoQrbw1AvNv8WtXLn-135" value="Chronometer.java" style="swimlane;fontStyle=1;align=center;verticalAlign=top;childLayout=stackLayout;horizontal=1;startSize=26;horizontalStack=0;resizeParent=1;resizeParentMax=0;resizeLast=0;collapsible=1;marginBottom=0;whiteSpace=wrap;html=1;" vertex="1" parent="1">
          <mxGeometry x="110" y="886" width="160" height="154" as="geometry" />
        </mxCell>
        <mxCell id="q51xoQrbw1AvNv8WtXLn-136" value="int POWER" style="text;strokeColor=none;fillColor=none;align=left;verticalAlign=top;spacingLeft=4;spacingRight=4;overflow=hidden;rotatable=0;points=[[0,0.5],[1,0.5]];portConstraint=eastwest;whiteSpace=wrap;html=1;" vertex="1" parent="q51xoQrbw1AvNv8WtXLn-135">
          <mxGeometry y="26" width="160" height="26" as="geometry" />
        </mxCell>
        <mxCell id="q51xoQrbw1AvNv8WtXLn-140" value="" style="line;strokeWidth=1;fillColor=none;align=left;verticalAlign=middle;spacingTop=-1;spacingLeft=3;spacingRight=3;rotatable=0;labelPosition=right;points=[];portConstraint=eastwest;strokeColor=inherit;" vertex="1" parent="q51xoQrbw1AvNv8WtXLn-135">
          <mxGeometry y="52" width="160" height="8" as="geometry" />
        </mxCell>
        <mxCell id="q51xoQrbw1AvNv8WtXLn-137" value="int DURATION" style="text;strokeColor=none;fillColor=none;align=left;verticalAlign=top;spacingLeft=4;spacingRight=4;overflow=hidden;rotatable=0;points=[[0,0.5],[1,0.5]];portConstraint=eastwest;whiteSpace=wrap;html=1;" vertex="1" parent="q51xoQrbw1AvNv8WtXLn-135">
          <mxGeometry y="60" width="160" height="26" as="geometry" />
        </mxCell>
        <mxCell id="q51xoQrbw1AvNv8WtXLn-141" value="" style="line;strokeWidth=1;fillColor=none;align=left;verticalAlign=middle;spacingTop=-1;spacingLeft=3;spacingRight=3;rotatable=0;labelPosition=right;points=[];portConstraint=eastwest;strokeColor=inherit;" vertex="1" parent="q51xoQrbw1AvNv8WtXLn-135">
          <mxGeometry y="86" width="160" height="8" as="geometry" />
        </mxCell>
        <mxCell id="q51xoQrbw1AvNv8WtXLn-138" value="int DELAY" style="text;strokeColor=none;fillColor=none;align=left;verticalAlign=top;spacingLeft=4;spacingRight=4;overflow=hidden;rotatable=0;points=[[0,0.5],[1,0.5]];portConstraint=eastwest;whiteSpace=wrap;html=1;" vertex="1" parent="q51xoQrbw1AvNv8WtXLn-135">
          <mxGeometry y="94" width="160" height="26" as="geometry" />
        </mxCell>
        <mxCell id="q51xoQrbw1AvNv8WtXLn-142" value="" style="line;strokeWidth=1;fillColor=none;align=left;verticalAlign=middle;spacingTop=-1;spacingLeft=3;spacingRight=3;rotatable=0;labelPosition=right;points=[];portConstraint=eastwest;strokeColor=inherit;" vertex="1" parent="q51xoQrbw1AvNv8WtXLn-135">
          <mxGeometry y="120" width="160" height="8" as="geometry" />
        </mxCell>
        <mxCell id="q51xoQrbw1AvNv8WtXLn-139" value="boolean isTaken" style="text;strokeColor=none;fillColor=none;align=left;verticalAlign=top;spacingLeft=4;spacingRight=4;overflow=hidden;rotatable=0;points=[[0,0.5],[1,0.5]];portConstraint=eastwest;whiteSpace=wrap;html=1;" vertex="1" parent="q51xoQrbw1AvNv8WtXLn-135">
          <mxGeometry y="128" width="160" height="26" as="geometry" />
        </mxCell>
        <mxCell id="q51xoQrbw1AvNv8WtXLn-143" style="edgeStyle=orthogonalEdgeStyle;rounded=0;orthogonalLoop=1;jettySize=auto;html=1;entryX=0;entryY=0.5;entryDx=0;entryDy=0;" edge="1" parent="1" source="q51xoQrbw1AvNv8WtXLn-22" target="q51xoQrbw1AvNv8WtXLn-114">
          <mxGeometry relative="1" as="geometry" />
        </mxCell>
        <mxCell id="q51xoQrbw1AvNv8WtXLn-144" style="edgeStyle=orthogonalEdgeStyle;rounded=0;orthogonalLoop=1;jettySize=auto;html=1;entryX=0;entryY=0.097;entryDx=0;entryDy=0;entryPerimeter=0;" edge="1" parent="1" source="q51xoQrbw1AvNv8WtXLn-24" target="q51xoQrbw1AvNv8WtXLn-118">
          <mxGeometry relative="1" as="geometry" />
        </mxCell>
        <mxCell id="q51xoQrbw1AvNv8WtXLn-145" style="edgeStyle=orthogonalEdgeStyle;rounded=0;orthogonalLoop=1;jettySize=auto;html=1;entryX=0;entryY=0.25;entryDx=0;entryDy=0;" edge="1" parent="1" source="q51xoQrbw1AvNv8WtXLn-26" target="q51xoQrbw1AvNv8WtXLn-127">
          <mxGeometry relative="1" as="geometry" />
        </mxCell>
        <mxCell id="q51xoQrbw1AvNv8WtXLn-146" value="Wall.java" style="swimlane;fontStyle=1;align=center;verticalAlign=top;childLayout=stackLayout;horizontal=1;startSize=26;horizontalStack=0;resizeParent=1;resizeParentMax=0;resizeLast=0;collapsible=1;marginBottom=0;whiteSpace=wrap;html=1;" vertex="1" parent="1">
          <mxGeometry x="110" y="840" width="160" height="30" as="geometry" />
        </mxCell>
        <mxCell id="q51xoQrbw1AvNv8WtXLn-148" style="edgeStyle=orthogonalEdgeStyle;rounded=0;orthogonalLoop=1;jettySize=auto;html=1;entryX=0;entryY=0.5;entryDx=0;entryDy=0;" edge="1" parent="1" source="q51xoQrbw1AvNv8WtXLn-28" target="q51xoQrbw1AvNv8WtXLn-146">
          <mxGeometry relative="1" as="geometry" />
        </mxCell>
        <mxCell id="q51xoQrbw1AvNv8WtXLn-149" style="edgeStyle=orthogonalEdgeStyle;rounded=0;orthogonalLoop=1;jettySize=auto;html=1;entryX=0;entryY=0.5;entryDx=0;entryDy=0;" edge="1" parent="1" source="q51xoQrbw1AvNv8WtXLn-30" target="q51xoQrbw1AvNv8WtXLn-137">
          <mxGeometry relative="1" as="geometry" />
        </mxCell>
        <mxCell id="q51xoQrbw1AvNv8WtXLn-157" style="edgeStyle=orthogonalEdgeStyle;rounded=0;orthogonalLoop=1;jettySize=auto;html=1;entryX=1;entryY=0.097;entryDx=0;entryDy=0;entryPerimeter=0;" edge="1" parent="1" source="q51xoQrbw1AvNv8WtXLn-73" target="q51xoQrbw1AvNv8WtXLn-118">
          <mxGeometry relative="1" as="geometry" />
        </mxCell>
        <mxCell id="q51xoQrbw1AvNv8WtXLn-158" value="" style="endArrow=classic;html=1;rounded=0;edgeStyle=orthogonalEdgeStyle;entryX=1.006;entryY=0.667;entryDx=0;entryDy=0;entryPerimeter=0;" edge="1" parent="1" target="q51xoQrbw1AvNv8WtXLn-124">
          <mxGeometry width="50" height="50" relative="1" as="geometry">
            <mxPoint x="290" y="590" as="sourcePoint" />
            <mxPoint x="280" y="720" as="targetPoint" />
            <Array as="points">
              <mxPoint x="290" y="690" />
              <mxPoint x="291" y="690" />
              <mxPoint x="291" y="692" />
            </Array>
          </mxGeometry>
        </mxCell>
        <mxCell id="q51xoQrbw1AvNv8WtXLn-159" value="" style="endArrow=classic;html=1;rounded=0;edgeStyle=orthogonalEdgeStyle;entryX=1.006;entryY=0.667;entryDx=0;entryDy=0;entryPerimeter=0;" edge="1" parent="1">
          <mxGeometry width="50" height="50" relative="1" as="geometry">
            <mxPoint x="290" y="650" as="sourcePoint" />
            <mxPoint x="270" y="800" as="targetPoint" />
            <Array as="points">
              <mxPoint x="289" y="798" />
              <mxPoint x="290" y="798" />
              <mxPoint x="290" y="800" />
            </Array>
          </mxGeometry>
        </mxCell>
        <mxCell id="q51xoQrbw1AvNv8WtXLn-160" value="" style="endArrow=classic;html=1;rounded=0;edgeStyle=orthogonalEdgeStyle;entryX=1.006;entryY=0.667;entryDx=0;entryDy=0;entryPerimeter=0;" edge="1" parent="1">
          <mxGeometry width="50" height="50" relative="1" as="geometry">
            <mxPoint x="289" y="755" as="sourcePoint" />
            <mxPoint x="270" y="857" as="targetPoint" />
            <Array as="points">
              <mxPoint x="289" y="855" />
              <mxPoint x="290" y="855" />
              <mxPoint x="290" y="857" />
            </Array>
          </mxGeometry>
        </mxCell>
        <mxCell id="q51xoQrbw1AvNv8WtXLn-161" value="" style="endArrow=classic;html=1;rounded=0;edgeStyle=orthogonalEdgeStyle;entryX=1.006;entryY=0.667;entryDx=0;entryDy=0;entryPerimeter=0;" edge="1" parent="1">
          <mxGeometry width="50" height="50" relative="1" as="geometry">
            <mxPoint x="289" y="850" as="sourcePoint" />
            <mxPoint x="270" y="952" as="targetPoint" />
            <Array as="points">
              <mxPoint x="289" y="950" />
              <mxPoint x="290" y="950" />
              <mxPoint x="290" y="952" />
            </Array>
          </mxGeometry>
        </mxCell>
        <mxCell id="q51xoQrbw1AvNv8WtXLn-162" value="Teleporter.java" style="swimlane;fontStyle=1;align=center;verticalAlign=top;childLayout=stackLayout;horizontal=1;startSize=26;horizontalStack=0;resizeParent=1;resizeParentMax=0;resizeLast=0;collapsible=1;marginBottom=0;whiteSpace=wrap;html=1;" vertex="1" parent="1">
          <mxGeometry x="105" y="1050" width="170" height="78" as="geometry" />
        </mxCell>
        <mxCell id="q51xoQrbw1AvNv8WtXLn-163" value="int portal2PosX, portal2PosY" style="text;strokeColor=none;fillColor=none;align=left;verticalAlign=top;spacingLeft=4;spacingRight=4;overflow=hidden;rotatable=0;points=[[0,0.5],[1,0.5]];portConstraint=eastwest;whiteSpace=wrap;html=1;" vertex="1" parent="q51xoQrbw1AvNv8WtXLn-162">
          <mxGeometry y="26" width="170" height="26" as="geometry" />
        </mxCell>
        <mxCell id="q51xoQrbw1AvNv8WtXLn-164" value="int skinIndex" style="text;strokeColor=none;fillColor=none;align=left;verticalAlign=top;spacingLeft=4;spacingRight=4;overflow=hidden;rotatable=0;points=[[0,0.5],[1,0.5]];portConstraint=eastwest;whiteSpace=wrap;html=1;" vertex="1" parent="q51xoQrbw1AvNv8WtXLn-162">
          <mxGeometry y="52" width="170" height="26" as="geometry" />
        </mxCell>
        <mxCell id="q51xoQrbw1AvNv8WtXLn-165" value="" style="endArrow=classic;html=1;rounded=0;edgeStyle=orthogonalEdgeStyle;entryX=1.006;entryY=0.667;entryDx=0;entryDy=0;entryPerimeter=0;" edge="1" parent="1">
          <mxGeometry width="50" height="50" relative="1" as="geometry">
            <mxPoint x="290" y="950" as="sourcePoint" />
            <mxPoint x="270" y="1092" as="targetPoint" />
            <Array as="points">
              <mxPoint x="289" y="1090" />
              <mxPoint x="290" y="1090" />
              <mxPoint x="290" y="1092" />
            </Array>
          </mxGeometry>
        </mxCell>
        <mxCell id="q51xoQrbw1AvNv8WtXLn-167" style="edgeStyle=orthogonalEdgeStyle;rounded=0;orthogonalLoop=1;jettySize=auto;html=1;entryX=0;entryY=0.25;entryDx=0;entryDy=0;" edge="1" parent="1" source="q51xoQrbw1AvNv8WtXLn-150" target="q51xoQrbw1AvNv8WtXLn-162">
          <mxGeometry relative="1" as="geometry" />
        </mxCell>
      </root>
    </mxGraphModel>
  </diagram>
</mxfile>
